<svg xmlns="http://www.w3.org/2000/svg"  viewBox="0 0 48 48" width="512px" height="512px"><linearGradient id="YIohwmMMg1lAKHv~w_I_ua" x1="6.997" x2="40.749" y1="6.492" y2="41.247" gradientUnits="userSpaceOnUse"><stop offset="0" stop-color="#ffd869"/><stop offset="1" stop-color="#fec52b"/></linearGradient><path fill="url(#YIohwmMMg1lAKHv~w_I_ua)" d="M40,42H8c-1.1,0-2-0.9-2-2V8c0-1.1,0.9-2,2-2h32c1.1,0,2,0.9,2,2v32C42,41.1,41.1,42,40,42z"/><path fill="#fff8e6" d="M19,6h10v5H19V6z"/><rect width="10" height="2" x="28" y="37" fill="#6b5f41"/><polygon fill="#6b5f41" points="38,32 36,30 34,32 35,32 35,35 37,35 37,32"/><polygon fill="#6b5f41" points="32,32 30,30 28,32 29,32 29,35 31,35 31,32"/></svg>